<?xml version="1.0" encoding="UTF-8" standalone="no"?>
<!-- Created with Inkscape (http://www.inkscape.org/) -->

<svg
   width="520"
   height="160"
   viewBox="0 0 137.58333 42.333333"
   version="1.1"
   id="svg5"
   sodipodi:docname="seisseg_logo_cc.svg"
   inkscape:version="1.3.2 (1:1.3.2+202311252150+091e20ef0f)"
   xmlns:inkscape="http://www.inkscape.org/namespaces/inkscape"
   xmlns:sodipodi="http://sodipodi.sourceforge.net/DTD/sodipodi-0.dtd"
   xmlns:xlink="http://www.w3.org/1999/xlink"
   xmlns="http://www.w3.org/2000/svg"
   xmlns:svg="http://www.w3.org/2000/svg">
  <sodipodi:namedview
     id="namedview1"
     pagecolor="#ffffff"
     bordercolor="#000000"
     borderopacity="0.25"
     inkscape:showpageshadow="2"
     inkscape:pageopacity="0.0"
     inkscape:pagecheckerboard="0"
     inkscape:deskcolor="#d1d1d1"
     inkscape:zoom="0.93269231"
     inkscape:cx="215.50515"
     inkscape:cy="131.34021"
     inkscape:window-width="1854"
     inkscape:window-height="1011"
     inkscape:window-x="1986"
     inkscape:window-y="32"
     inkscape:window-maximized="1"
     inkscape:current-layer="svg5" />
  <defs
     id="defs2">
    <linearGradient
       id="linearGradient1155">
      <stop
         style="stop-color:#370617;stop-opacity:1;"
         offset="0"
         id="stop1151" />
      <stop
         style="stop-color:#f48c06;stop-opacity:1;"
         offset="1"
         id="stop1153" />
    </linearGradient>
    <linearGradient
       xlink:href="#linearGradient1155"
       id="linearGradient1157"
       x1="23.320303"
       y1="119.98603"
       x2="160.90363"
       y2="119.98603"
       gradientUnits="userSpaceOnUse"
       gradientTransform="translate(-23.3203,-98.819366)" />
    <clipPath
       clipPathUnits="userSpaceOnUse"
       id="clipPath1">
      <rect
         style="fill:none;fill-opacity:1;stroke:#ff00ff;stroke-width:0.258195;stroke-linecap:round;stroke-linejoin:round;stroke-dasharray:none"
         id="rect1"
         width="127"
         height="31.75"
         x="5.291667"
         y="5.2916665"
         ry="7.424973" />
    </clipPath>
  </defs>
  <g
     id="layer1">
    <g
       id="g2">
      <path
         id="rect234"
         style="fill:url(#linearGradient1157);stroke-width:0.310311;stroke-linecap:round;stroke-linejoin:round"
         d="M 2.9632567e-6,4.5507812e-7 H 137.58333 V 42.333333 H 2.9632567e-6 Z" />
      <g
         id="g1"
         clip-path="url(#clipPath1)">
        <path
           id="rect234-4"
           style="fill:#1a1a1a;stroke-width:0.258195;stroke-linecap:round;stroke-linejoin:round"
           d="M 5.291667,5.2916646 H 132.29167 V 37.041665 H 5.291667 Z" />
        <path
           id="rect234-4-0"
           style="fill:#ff00ff;stroke-width:0.190404;stroke-linecap:round;stroke-linejoin:round"
           d="M 5.291667,5.2916646 H 74.357921 V 37.041665 H 5.291667 Z" />
        <path
           style="fill:#03071e;fill-opacity:1;stroke:none;stroke-width:0.342735;stroke-linecap:round;stroke-linejoin:round;stroke-dasharray:none"
           d="m 5.291667,5.291664 v 10.55991 L 39.824792,5.291664 Z"
           id="path2183" />
        <path
           style="fill:#370617;fill-opacity:1;stroke:none;stroke-width:0.342735;stroke-linecap:round;stroke-linejoin:round;stroke-dasharray:none"
           d="m 5.291667,15.851574 v 5.31508 c 8.661141,-6.562732 35.54624,-5.416069 51.419456,-15.87499 H 39.824792 C 27.796615,7.5121752 15.685347,9.5238972 5.291667,15.851574 Z"
           id="path2185" />
        <path
           style="fill:#6a040f;fill-opacity:1;stroke:none;stroke-width:0.342735;stroke-linecap:round;stroke-linejoin:round;stroke-dasharray:none"
           d="M 5.291667,27.285194 74.357918,12.564824 V 5.291664 H 56.711123 C 37.428061,14.447705 24.991114,4.0064663 5.291667,21.166664 Z"
           id="path2187" />
        <path
           style="fill:#9d0208;fill-opacity:1;stroke:none;stroke-width:0.342735;stroke-linecap:round;stroke-linejoin:round;stroke-dasharray:none"
           d="m 5.291667,30.556662 v -6.2807 C 18.63554,7.7965603 47.90889,11.406136 74.357918,9.5555923 V 24.275962 c -22.984845,2.438773 -45.088975,13.041787 -69.066251,6.2807 z"
           id="path2189" />
        <path
           style="fill:#d00000;fill-opacity:1;stroke:none;stroke-width:0.342735;stroke-linecap:round;stroke-linejoin:round;stroke-dasharray:none"
           d="M 5.291667,30.556662 V 26.80362 C 17.982055,12.03714 47.547751,12.352903 74.357916,11.531293 v 12.744669 c -22.984843,2.438773 -45.088973,13.041787 -69.066249,6.2807 z"
           id="path2189-0" />
        <path
           style="fill:#dc2f02;fill-opacity:1;stroke:none;stroke-width:0.342735;stroke-linecap:round;stroke-linejoin:round;stroke-dasharray:none"
           d="m 5.291667,29.192613 0,7.849041 h 69.066251 l 0,-21.394776 C 52.244773,5.0172838 39.709734,35.41887 5.291667,29.192613 Z"
           id="path2191-9" />
        <path
           style="fill:#e85d04;fill-opacity:1;stroke:none;stroke-width:0.342735;stroke-linecap:round;stroke-linejoin:round;stroke-dasharray:none"
           d="m 5.291667,32.409168 v 4.632486 H 74.357918 V 17.382278 C 52.244773,6.752684 39.709735,38.635425 5.291667,32.409168 Z"
           id="path2191-3" />
        <path
           style="fill:#f48c06;fill-opacity:1;stroke:none;stroke-width:0.342735;stroke-linecap:round;stroke-linejoin:round;stroke-dasharray:none"
           d="m 5.291667,33.565894 v 3.47576 h 69.066251 v -9.75646 C 52.244773,16.6556 39.709734,39.792151 5.291667,33.565894 Z"
           id="path2191" />
        <g
           id="text974-5"
           style="font-size:22.9406px;font-family:Calibri;-inkscape-font-specification:Calibri;fill:#ffffff;stroke-width:1.77351;stroke-linecap:round;stroke-linejoin:round"
           aria-label="SeisSeg">
          <path
             style="font-weight:bold;font-family:'Reem Kufi';-inkscape-font-specification:'Reem Kufi Bold';fill:#1a1a1a"
             d="m 34.335961,12.80791 v 3.539663 q -1.37778,-0.61608 -2.688351,-0.929721 -1.310571,-0.313641 -2.475524,-0.313641 -1.545802,0 -2.285098,0.425655 -0.739297,0.425656 -0.739297,1.321773 0,0.672088 0.492864,1.052938 0.504066,0.369648 1.814638,0.638483 l 1.83704,0.369648 q 2.789164,0.560074 3.965318,1.702623 1.176154,1.142549 1.176154,3.248425 0,2.766762 -1.646615,4.122139 -1.635414,1.344176 -5.007055,1.344176 -1.590608,0 -3.192417,-0.30244 -1.60181,-0.30244 -3.203619,-0.896117 v -3.640476 q 1.601809,0.851311 3.091604,1.288168 1.500996,0.425656 2.889978,0.425656 1.411384,0 2.161883,-0.470462 0.750498,-0.470461 0.750498,-1.344175 0,-0.784103 -0.515268,-1.209759 -0.504066,-0.425655 -2.027465,-0.761699 l -1.669018,-0.369648 q -2.509128,-0.537671 -3.67408,-1.713825 -1.153751,-1.176153 -1.153751,-3.170014 0,-2.497927 1.613011,-3.842102 1.613011,-1.344176 4.637406,-1.344176 1.37778,0 2.833971,0.212828 1.45619,0.201626 3.013193,0.61608 z m 17.227852,9.890893 v 1.14255 h -9.375626 q 0.14562,1.411384 1.019334,2.117077 0.873714,0.705692 2.441919,0.705692 1.265766,0 2.587538,-0.369648 1.332975,-0.38085 2.733158,-1.14255 v 3.091604 q -1.422586,0.537671 -2.845172,0.806506 -1.422586,0.280037 -2.845172,0.280037 -3.405246,0 -5.298293,-1.725026 -1.881846,-1.736227 -1.881846,-4.861436 0,-3.069201 1.848242,-4.827831 1.859443,-1.75863 5.107867,-1.75863 2.957187,0 4.727018,1.781033 1.781033,1.781033 1.781033,4.760622 z m -4.122139,-1.332974 q 0,-1.142549 -0.672088,-1.83704 -0.660886,-0.705692 -1.736227,-0.705692 -1.164952,0 -1.893047,0.660886 -0.728095,0.649685 -0.907319,1.881846 z m 7.157736,-4.906241 h 4.010124 v 12.54564 H 54.59941 Z m 0,-4.883839 h 4.010124 v 3.270828 H 54.59941 Z m 17.664708,5.27589 v 3.046798 q -1.288169,-0.53767 -2.486725,-0.806505 -1.198557,-0.268835 -2.262696,-0.268835 -1.14255,0 -1.702623,0.291238 -0.548872,0.280036 -0.548872,0.873714 0,0.481663 0.414455,0.739297 0.425655,0.257633 1.512197,0.38085 l 0.705693,0.100813 q 3.080402,0.392051 4.144541,1.288168 1.06414,0.896117 1.06414,2.811568 0,2.005062 -1.478594,3.013194 -1.478593,1.008132 -4.413377,1.008132 -1.243362,0 -2.576337,-0.201627 -1.321772,-0.190425 -2.721956,-0.582476 V 25.49917 q 1.198557,0.582476 2.453121,0.873714 1.265766,0.291238 2.565136,0.291238 1.176153,0 1.769831,-0.324843 0.593678,-0.324842 0.593678,-0.963325 0,-0.537671 -0.414455,-0.795304 -0.403252,-0.268836 -1.624212,-0.414455 l -0.705692,-0.08961 q -2.67715,-0.336044 -3.752491,-1.243363 -1.07534,-0.907319 -1.07534,-2.75556 0,-1.993861 1.366578,-2.957187 1.366579,-0.963326 4.189348,-0.963326 1.108945,0 2.329905,0.168022 1.220959,0.168022 2.654747,0.526469 z"
             id="path2" />
          <path
             style="font-family:'Reem Kufi';-inkscape-font-specification:'Reem Kufi'"
             d="m 86.467576,12.830313 v 2.206689 q -1.288168,-0.616081 -2.430718,-0.91852 -1.142549,-0.30244 -2.206688,-0.30244 -1.848242,0 -2.856374,0.716894 -0.99693,0.716894 -0.99693,2.038666 0,1.108945 0.660887,1.68022 0.672087,0.560073 2.531531,0.907319 l 1.366578,0.280036 q 2.531531,0.481663 3.730088,1.702623 1.209758,1.209758 1.209758,3.248425 0,2.430717 -1.635414,3.685281 -1.624212,1.254565 -4.771824,1.254565 -1.187355,0 -2.531531,-0.268836 -1.332974,-0.268835 -2.766761,-0.795304 v -2.329904 q 1.37778,0.772901 2.699553,1.164952 1.321772,0.392051 2.598739,0.392051 1.937854,0 2.990791,-0.761699 1.052938,-0.7617 1.052938,-2.173084 0,-1.232161 -0.7617,-1.926652 -0.750498,-0.694491 -2.475523,-1.041737 l -1.37778,-0.268835 q -2.531531,-0.504066 -3.662879,-1.579406 -1.131348,-1.075341 -1.131348,-2.990791 0,-2.21789 1.557003,-3.494857 1.568205,-1.276967 4.312564,-1.276967 1.176154,0 2.397114,0.212828 1.220959,0.212828 2.497926,0.638483 z m 15.177984,9.386828 v 1.008131 h -9.476437 q 0.134417,2.128279 1.276967,3.248425 1.153751,1.108945 3.203619,1.108945 1.187355,0 2.2963,-0.291238 1.120151,-0.291238 2.217891,-0.873714 v 1.949055 q -1.10895,0.470461 -2.273899,0.716893 -1.164952,0.246433 -2.363509,0.246433 -3.001992,0 -4.760622,-1.747429 -1.747428,-1.747428 -1.747428,-4.727018 0,-3.080403 1.657816,-4.883839 1.669018,-1.814637 4.491788,-1.814637 2.531531,0 3.998924,1.635414 1.47859,1.624212 1.47859,4.424579 z m -2.061068,-0.60488 q -0.0224,-1.691421 -0.952124,-2.699553 -0.91852,-1.008131 -2.44192,-1.008131 -1.725025,0 -2.766761,0.974527 -1.030535,0.974527 -1.187356,2.744359 z m 13.699388,0.974528 q 0,-2.240293 -0.92972,-3.472454 -0.91852,-1.232161 -2.58754,-1.232161 -1.65781,0 -2.58753,1.232161 -0.91852,1.232161 -0.91852,3.472454 0,2.229091 0.91852,3.461252 0.92972,1.232161 2.58753,1.232161 1.66902,0 2.58754,-1.232161 0.92972,-1.232161 0.92972,-3.461252 z m 2.06107,4.861435 q 0,3.203619 -1.42258,4.760623 -1.42259,1.568205 -4.35737,1.568205 -1.08654,0 -2.04987,-0.168022 -0.96333,-0.156821 -1.87064,-0.492864 v -2.005063 q 0.90731,0.492865 1.79223,0.728096 0.88492,0.23523 1.80344,0.23523 2.02746,0 3.03559,-1.064139 1.00813,-1.052937 1.00813,-3.192417 V 26.79854 q -0.63848,1.108945 -1.63541,1.657816 -0.99693,0.548872 -2.38591,0.548872 -2.3075,0 -3.71889,-1.75863 -1.41138,-1.75863 -1.41138,-4.659809 0,-2.912381 1.41138,-4.671011 1.41139,-1.75863 3.71889,-1.75863 1.38898,0 2.38591,0.548872 0.99693,0.548872 1.63541,1.657817 v -1.904249 h 2.06107 z"
             id="path3" />
        </g>
      </g>
    </g>
  </g>
</svg>
