<?xml version="1.0" encoding="UTF-8" standalone="no"?>
<!-- Created with Inkscape (http://www.inkscape.org/) -->

<svg
   width="127mm"
   height="31.75mm"
   viewBox="0 0 126.99999 31.75"
   version="1.1"
   id="svg5"
   inkscape:version="1.3.2 (1:1.3.2+202311252150+091e20ef0f)"
   sodipodi:docname="seisseg_logo_cc_nn.svg"
   xmlns:inkscape="http://www.inkscape.org/namespaces/inkscape"
   xmlns:sodipodi="http://sodipodi.sourceforge.net/DTD/sodipodi-0.dtd"
   xmlns="http://www.w3.org/2000/svg"
   xmlns:svg="http://www.w3.org/2000/svg">
  <sodipodi:namedview
     id="namedview7"
     pagecolor="#ffffff"
     bordercolor="#000000"
     borderopacity="0.25"
     inkscape:showpageshadow="2"
     inkscape:pageopacity="0.0"
     inkscape:pagecheckerboard="0"
     inkscape:deskcolor="#d1d1d1"
     inkscape:document-units="mm"
     showgrid="false"
     inkscape:zoom="1.3480463"
     inkscape:cx="214.38433"
     inkscape:cy="-28.55985"
     inkscape:window-width="1854"
     inkscape:window-height="1011"
     inkscape:window-x="1986"
     inkscape:window-y="32"
     inkscape:window-maximized="1"
     inkscape:current-layer="layer1" />
  <defs
     id="defs2">
    <clipPath
       clipPathUnits="userSpaceOnUse"
       id="clipPath2">
      <g
         id="g3">
        <rect
           style="fill:none;fill-opacity:1;stroke:#ff00ff;stroke-width:0.258195;stroke-linecap:round;stroke-linejoin:round;stroke-dasharray:none"
           id="rect2"
           width="127"
           height="31.75"
           x="5.291667"
           y="5.2916665"
           ry="7.424973" />
      </g>
    </clipPath>
    <clipPath
       clipPathUnits="userSpaceOnUse"
       id="clipPath3">
      <g
         id="g4">
        <rect
           style="fill:none;fill-opacity:1;stroke:#ff00ff;stroke-width:0.258195;stroke-linecap:round;stroke-linejoin:round;stroke-dasharray:none"
           id="rect3"
           width="127"
           height="31.75"
           x="5.291667"
           y="5.2916665"
           ry="7.424973" />
      </g>
    </clipPath>
    <clipPath
       clipPathUnits="userSpaceOnUse"
       id="clipPath4">
      <g
         id="g5">
        <rect
           style="fill:none;fill-opacity:1;stroke:#ff00ff;stroke-width:0.258195;stroke-linecap:round;stroke-linejoin:round;stroke-dasharray:none"
           id="rect4"
           width="127"
           height="31.75"
           x="5.291667"
           y="5.2916665"
           ry="7.424973" />
      </g>
    </clipPath>
    <clipPath
       clipPathUnits="userSpaceOnUse"
       id="clipPath5">
      <g
         id="g6">
        <rect
           style="fill:none;fill-opacity:1;stroke:#ff00ff;stroke-width:0.258195;stroke-linecap:round;stroke-linejoin:round;stroke-dasharray:none"
           id="rect5"
           width="127"
           height="31.75"
           x="5.291667"
           y="5.2916665"
           ry="7.424973" />
      </g>
    </clipPath>
    <clipPath
       clipPathUnits="userSpaceOnUse"
       id="clipPath6">
      <g
         id="g7">
        <rect
           style="fill:none;fill-opacity:1;stroke:#ff00ff;stroke-width:0.258195;stroke-linecap:round;stroke-linejoin:round;stroke-dasharray:none"
           id="rect6"
           width="127"
           height="31.75"
           x="5.291667"
           y="5.2916665"
           ry="7.424973" />
      </g>
    </clipPath>
    <clipPath
       clipPathUnits="userSpaceOnUse"
       id="clipPath7">
      <g
         id="g8">
        <rect
           style="fill:none;fill-opacity:1;stroke:#ff00ff;stroke-width:0.258195;stroke-linecap:round;stroke-linejoin:round;stroke-dasharray:none"
           id="rect7"
           width="127"
           height="31.75"
           x="5.291667"
           y="5.2916665"
           ry="7.424973" />
      </g>
    </clipPath>
    <clipPath
       clipPathUnits="userSpaceOnUse"
       id="clipPath8">
      <g
         id="g9">
        <rect
           style="fill:none;fill-opacity:1;stroke:#ff00ff;stroke-width:0.258195;stroke-linecap:round;stroke-linejoin:round;stroke-dasharray:none"
           id="rect8"
           width="127"
           height="31.75"
           x="5.291667"
           y="5.2916665"
           ry="7.424973" />
      </g>
    </clipPath>
    <clipPath
       clipPathUnits="userSpaceOnUse"
       id="clipPath9">
      <g
         id="g10">
        <rect
           style="fill:none;fill-opacity:1;stroke:#ff00ff;stroke-width:0.258195;stroke-linecap:round;stroke-linejoin:round;stroke-dasharray:none"
           id="rect9"
           width="127"
           height="31.75"
           x="5.291667"
           y="5.2916665"
           ry="7.424973" />
      </g>
    </clipPath>
    <clipPath
       clipPathUnits="userSpaceOnUse"
       id="clipPath10">
      <g
         id="g11">
        <rect
           style="fill:none;fill-opacity:1;stroke:#ff00ff;stroke-width:0.258195;stroke-linecap:round;stroke-linejoin:round;stroke-dasharray:none"
           id="rect10"
           width="127"
           height="31.75"
           x="5.291667"
           y="5.2916665"
           ry="7.424973" />
      </g>
    </clipPath>
    <clipPath
       clipPathUnits="userSpaceOnUse"
       id="clipPath11">
      <g
         id="g12">
        <rect
           style="fill:none;fill-opacity:1;stroke:#ff00ff;stroke-width:0.258195;stroke-linecap:round;stroke-linejoin:round;stroke-dasharray:none"
           id="rect11"
           width="127"
           height="31.75"
           x="5.291667"
           y="5.2916665"
           ry="7.424973" />
      </g>
    </clipPath>
    <clipPath
       clipPathUnits="userSpaceOnUse"
       id="clipPath12">
      <path
         sodipodi:type="star"
         style="fill:none;fill-opacity:1;stroke:#ff00ff;stroke-width:0.309529;stroke-linecap:round;stroke-linejoin:round;stroke-dasharray:none;paint-order:stroke markers fill"
         id="path12"
         inkscape:flatsided="false"
         sodipodi:sides="3"
         sodipodi:cx="20.689747"
         sodipodi:cy="84.26004"
         sodipodi:r1="26.200117"
         sodipodi:r2="13.100062"
         sodipodi:arg1="0.52359878"
         sodipodi:arg2="1.5707963"
         inkscape:rounded="0"
         inkscape:randomized="0"
         d="m 43.379714,97.360099 -22.689967,4e-6 -22.6899672,-4e-6 L 9.3447599,77.710009 20.689747,58.059923 32.034733,77.710009 Z"
         inkscape:transform-center-y="5.2903174"
         transform="matrix(0.80767886,0,0,-0.80767886,81.907322,43.714733)" />
    </clipPath>
  </defs>
  <g
     inkscape:label="Layer 1"
     inkscape:groupmode="layer"
     id="layer1">
    <g
       id="g14"
       transform="translate(-5.291667,-5.2916659)">
      <path
         id="rect234-4"
         clip-path="url(#clipPath11)"
         style="fill:#1a1a1a;stroke-width:0.258195;stroke-linecap:round;stroke-linejoin:round"
         d="M 5.291667,5.2916646 H 132.29167 V 37.041665 H 5.291667 Z" />
      <path
         id="rect234-4-0"
         clip-path="url(#clipPath10)"
         style="fill:#ff00ff;stroke-width:0.190404;stroke-linecap:round;stroke-linejoin:round"
         d="M 5.291667,5.2916646 H 74.357921 V 37.041665 H 5.291667 Z" />
      <path
         style="fill:#03071e;fill-opacity:1;stroke:none;stroke-width:0.342735;stroke-linecap:round;stroke-linejoin:round;stroke-dasharray:none"
         d="m 5.291667,5.291664 v 10.55991 L 39.824792,5.291664 Z"
         id="path2183"
         clip-path="url(#clipPath9)" />
      <path
         style="fill:#370617;fill-opacity:1;stroke:none;stroke-width:0.342735;stroke-linecap:round;stroke-linejoin:round;stroke-dasharray:none"
         d="m 5.291667,15.851574 v 5.31508 c 8.661141,-6.562732 35.54624,-5.416069 51.419456,-15.87499 H 39.824792 C 27.796615,7.5121752 15.685347,9.5238972 5.291667,15.851574 Z"
         id="path2185"
         sodipodi:nodetypes="ccccc"
         clip-path="url(#clipPath8)" />
      <path
         style="fill:#6a040f;fill-opacity:1;stroke:none;stroke-width:0.342735;stroke-linecap:round;stroke-linejoin:round;stroke-dasharray:none"
         d="M 5.291667,27.285194 74.357918,12.564824 V 5.291664 H 56.711123 C 37.428061,14.447705 24.991114,4.0064663 5.291667,21.166664 Z"
         id="path2187"
         sodipodi:nodetypes="cccccc"
         clip-path="url(#clipPath7)" />
      <path
         style="fill:#9d0208;fill-opacity:1;stroke:none;stroke-width:0.342735;stroke-linecap:round;stroke-linejoin:round;stroke-dasharray:none"
         d="m 5.291667,30.556662 v -6.2807 C 18.63554,7.7965603 47.90889,11.406136 74.357918,9.5555923 V 24.275962 c -22.984845,2.438773 -45.088975,13.041787 -69.066251,6.2807 z"
         id="path2189"
         sodipodi:nodetypes="ccccc"
         clip-path="url(#clipPath6)" />
      <path
         style="fill:#d00000;fill-opacity:1;stroke:none;stroke-width:0.342735;stroke-linecap:round;stroke-linejoin:round;stroke-dasharray:none"
         d="M 5.291667,30.556662 V 26.80362 C 17.982055,12.03714 47.547751,12.352903 74.357916,11.531293 v 12.744669 c -22.984843,2.438773 -45.088973,13.041787 -69.066249,6.2807 z"
         id="path2189-0"
         sodipodi:nodetypes="ccccc"
         clip-path="url(#clipPath5)" />
      <path
         style="fill:#dc2f02;fill-opacity:1;stroke:none;stroke-width:0.342735;stroke-linecap:round;stroke-linejoin:round;stroke-dasharray:none"
         d="m 5.291667,29.192613 v 7.849041 H 74.357918 V 15.646878 C 52.244773,5.0172838 39.709734,35.41887 5.291667,29.192613 Z"
         id="path2191-9"
         sodipodi:nodetypes="ccccc"
         clip-path="url(#clipPath4)" />
      <path
         style="fill:#e85d04;fill-opacity:1;stroke:none;stroke-width:0.342735;stroke-linecap:round;stroke-linejoin:round;stroke-dasharray:none"
         d="m 5.291667,32.409168 v 4.632486 H 74.357918 V 17.382278 C 52.244773,6.752684 39.709735,38.635425 5.291667,32.409168 Z"
         id="path2191-3"
         sodipodi:nodetypes="ccccc"
         clip-path="url(#clipPath3)" />
      <path
         style="fill:#f48c06;fill-opacity:1;stroke:none;stroke-width:0.342735;stroke-linecap:round;stroke-linejoin:round;stroke-dasharray:none"
         d="m 5.291667,33.565894 v 3.47576 h 69.066251 v -9.75646 C 52.244773,16.6556 39.709734,39.792151 5.291667,33.565894 Z"
         id="path2191"
         sodipodi:nodetypes="ccccc"
         clip-path="url(#clipPath2)" />
      <path
         id="path2"
         style="fill:#faa307;stroke:#ff00ff;stroke-width:0.01;stroke-linecap:round;stroke-linejoin:round;paint-order:stroke markers fill"
         inkscape:transform-center-y="5.2903174"
         transform="matrix(0.80767885,0,0,-0.80767885,57.843619,83.9314)"
         d="m 43.379714,97.360099 -22.689967,4e-6 -22.6899672,-4e-6 L 9.3447599,77.710009 20.689747,58.059923 32.034733,77.710009 Z" />
      <g
         id="text974-5"
         style="font-size:22.9406px;font-family:Calibri;-inkscape-font-specification:Calibri;fill:#ffffff;stroke-width:1.77351;stroke-linecap:round;stroke-linejoin:round"
         aria-label="SeisSeg">
        <path
           style="font-weight:bold;font-family:'Reem Kufi';-inkscape-font-specification:'Reem Kufi Bold';fill:#000000"
           d="m 34.335961,12.80791 v 3.539663 q -1.37778,-0.61608 -2.688351,-0.929721 -1.310571,-0.313641 -2.475524,-0.313641 -1.545802,0 -2.285098,0.425655 -0.739297,0.425656 -0.739297,1.321773 0,0.672088 0.492864,1.052938 0.504066,0.369648 1.814638,0.638483 l 1.83704,0.369648 q 2.789164,0.560074 3.965318,1.702623 1.176154,1.142549 1.176154,3.248425 0,2.766762 -1.646615,4.122139 -1.635414,1.344176 -5.007055,1.344176 -1.590608,0 -3.192417,-0.30244 -1.60181,-0.30244 -3.203619,-0.896117 v -3.640476 q 1.601809,0.851311 3.091604,1.288168 1.500996,0.425656 2.889978,0.425656 1.411384,0 2.161883,-0.470462 0.750498,-0.470461 0.750498,-1.344175 0,-0.784103 -0.515268,-1.209759 -0.504066,-0.425655 -2.027465,-0.761699 l -1.669018,-0.369648 q -2.509128,-0.537671 -3.67408,-1.713825 -1.153751,-1.176153 -1.153751,-3.170014 0,-2.497927 1.613011,-3.842102 1.613011,-1.344176 4.637406,-1.344176 1.37778,0 2.833971,0.212828 1.45619,0.201626 3.013193,0.61608 z m 17.227852,9.890893 v 1.14255 h -9.375626 q 0.14562,1.411384 1.019334,2.117077 0.873714,0.705692 2.441919,0.705692 1.265766,0 2.587538,-0.369648 1.332975,-0.38085 2.733158,-1.14255 v 3.091604 q -1.422586,0.537671 -2.845172,0.806506 -1.422586,0.280037 -2.845172,0.280037 -3.405246,0 -5.298293,-1.725026 -1.881846,-1.736227 -1.881846,-4.861436 0,-3.069201 1.848242,-4.827831 1.859443,-1.75863 5.107867,-1.75863 2.957187,0 4.727018,1.781033 1.781033,1.781033 1.781033,4.760622 z m -4.122139,-1.332974 q 0,-1.142549 -0.672088,-1.83704 -0.660886,-0.705692 -1.736227,-0.705692 -1.164952,0 -1.893047,0.660886 -0.728095,0.649685 -0.907319,1.881846 z m 7.157736,-4.906241 h 4.010124 v 12.54564 H 54.59941 Z m 0,-4.883839 h 4.010124 v 3.270828 H 54.59941 Z m 17.664708,5.27589 v 3.046798 q -1.288169,-0.53767 -2.486725,-0.806505 -1.198557,-0.268835 -2.262696,-0.268835 -1.14255,0 -1.702623,0.291238 -0.548872,0.280036 -0.548872,0.873714 0,0.481663 0.414455,0.739297 0.425655,0.257633 1.512197,0.38085 l 0.705693,0.100813 q 3.080402,0.392051 4.144541,1.288168 1.06414,0.896117 1.06414,2.811568 0,2.005062 -1.478594,3.013194 -1.478593,1.008132 -4.413377,1.008132 -1.243362,0 -2.576337,-0.201627 -1.321772,-0.190425 -2.721956,-0.582476 V 25.49917 q 1.198557,0.582476 2.453121,0.873714 1.265766,0.291238 2.565136,0.291238 1.176153,0 1.769831,-0.324843 0.593678,-0.324842 0.593678,-0.963325 0,-0.537671 -0.414455,-0.795304 -0.403252,-0.268836 -1.624212,-0.414455 l -0.705692,-0.08961 q -2.67715,-0.336044 -3.752491,-1.243363 -1.07534,-0.907319 -1.07534,-2.75556 0,-1.993861 1.366578,-2.957187 1.366579,-0.963326 4.189348,-0.963326 1.108945,0 2.329905,0.168022 1.220959,0.168022 2.654747,0.526469 z"
           id="path14" />
        <path
           style="font-family:'Reem Kufi';-inkscape-font-specification:'Reem Kufi'"
           d="m 86.467576,12.830313 v 2.206689 q -1.288168,-0.616081 -2.430718,-0.91852 -1.142549,-0.30244 -2.206688,-0.30244 -1.848242,0 -2.856374,0.716894 -0.99693,0.716894 -0.99693,2.038666 0,1.108945 0.660887,1.68022 0.672087,0.560073 2.531531,0.907319 l 1.366578,0.280036 q 2.531531,0.481663 3.730088,1.702623 1.209758,1.209758 1.209758,3.248425 0,2.430717 -1.635414,3.685281 -1.624212,1.254565 -4.771824,1.254565 -1.187355,0 -2.531531,-0.268836 -1.332974,-0.268835 -2.766761,-0.795304 v -2.329904 q 1.37778,0.772901 2.699553,1.164952 1.321772,0.392051 2.598739,0.392051 1.937854,0 2.990791,-0.761699 1.052938,-0.7617 1.052938,-2.173084 0,-1.232161 -0.7617,-1.926652 -0.750498,-0.694491 -2.475523,-1.041737 l -1.37778,-0.268835 q -2.531531,-0.504066 -3.662879,-1.579406 -1.131348,-1.075341 -1.131348,-2.990791 0,-2.21789 1.557003,-3.494857 1.568205,-1.276967 4.312564,-1.276967 1.176154,0 2.397114,0.212828 1.220959,0.212828 2.497926,0.638483 z m 15.177984,9.386828 v 1.008131 h -9.476437 q 0.134417,2.128279 1.276967,3.248425 1.153751,1.108945 3.203619,1.108945 1.187355,0 2.2963,-0.291238 1.120151,-0.291238 2.217891,-0.873714 v 1.949055 q -1.10895,0.470461 -2.273899,0.716893 -1.164952,0.246433 -2.363509,0.246433 -3.001992,0 -4.760622,-1.747429 -1.747428,-1.747428 -1.747428,-4.727018 0,-3.080403 1.657816,-4.883839 1.669018,-1.814637 4.491788,-1.814637 2.531531,0 3.998924,1.635414 1.47859,1.624212 1.47859,4.424579 z m -2.061068,-0.60488 q -0.0224,-1.691421 -0.952124,-2.699553 -0.91852,-1.008131 -2.44192,-1.008131 -1.725025,0 -2.766761,0.974527 -1.030535,0.974527 -1.187356,2.744359 z m 13.699388,0.974528 q 0,-2.240293 -0.92972,-3.472454 -0.91852,-1.232161 -2.58754,-1.232161 -1.65781,0 -2.58753,1.232161 -0.91852,1.232161 -0.91852,3.472454 0,2.229091 0.91852,3.461252 0.92972,1.232161 2.58753,1.232161 1.66902,0 2.58754,-1.232161 0.92972,-1.232161 0.92972,-3.461252 z m 2.06107,4.861435 q 0,3.203619 -1.42258,4.760623 -1.42259,1.568205 -4.35737,1.568205 -1.08654,0 -2.04987,-0.168022 -0.96333,-0.156821 -1.87064,-0.492864 v -2.005063 q 0.90731,0.492865 1.79223,0.728096 0.88492,0.23523 1.80344,0.23523 2.02746,0 3.03559,-1.064139 1.00813,-1.052937 1.00813,-3.192417 V 26.79854 q -0.63848,1.108945 -1.63541,1.657816 -0.99693,0.548872 -2.38591,0.548872 -2.3075,0 -3.71889,-1.75863 -1.41138,-1.75863 -1.41138,-4.659809 0,-2.912381 1.41138,-4.671011 1.41139,-1.75863 3.71889,-1.75863 1.38898,0 2.38591,0.548872 0.99693,0.548872 1.63541,1.657817 v -1.904249 h 2.06107 z"
           id="path15" />
      </g>
      <g
         id="g13"
         transform="translate(-24.063703,40.216672)">
        <path
           id="path2-0"
           style="fill:#faa307;stroke:#ff00ff;stroke-width:0.01;stroke-linecap:round;stroke-linejoin:round;paint-order:stroke markers fill"
           inkscape:transform-center-y="5.2903174"
           transform="matrix(0.80767885,0,0,-0.80767885,81.907322,43.714728)"
           d="m 43.379714,97.360099 -22.689967,4e-6 -22.6899672,-4e-6 L 9.3447599,77.710009 20.689747,58.059923 32.034733,77.710009 Z" />
        <g
           id="text974-5-0-8"
           clip-path="url(#clipPath12)"
           style="font-size:22.9406px;font-family:Calibri;-inkscape-font-specification:Calibri;stroke-width:1.77351;stroke-linecap:round;stroke-linejoin:round"
           aria-label="SeisSeg">
          <path
             style="font-weight:bold;font-family:'Reem Kufi';-inkscape-font-specification:'Reem Kufi Bold'"
             d="m 58.399665,-27.408756 v 3.539663 q -1.37778,-0.616081 -2.688351,-0.929722 -1.310572,-0.313641 -2.475524,-0.313641 -1.545802,0 -2.285099,0.425656 -0.739297,0.425656 -0.739297,1.321773 0,0.672088 0.492865,1.052937 0.504066,0.369649 1.814637,0.638484 l 1.83704,0.369648 q 2.789165,0.560073 3.965319,1.702623 1.176154,1.142549 1.176154,3.248425 0,2.766761 -1.646616,4.122139 -1.635414,1.344175 -5.007054,1.344175 -1.590608,0 -3.192418,-0.302439 -1.601809,-0.30244 -3.203619,-0.896117 v -3.640476 q 1.60181,0.851311 3.091605,1.288168 1.500996,0.425656 2.889977,0.425656 1.411385,0 2.161883,-0.470462 0.750498,-0.470461 0.750498,-1.344176 0,-0.784102 -0.515267,-1.209758 -0.504066,-0.425655 -2.027465,-0.761699 l -1.669018,-0.369649 q -2.509129,-0.53767 -3.674081,-1.713824 -1.153751,-1.176154 -1.153751,-3.170014 0,-2.497927 1.613011,-3.842103 1.613011,-1.344175 4.637407,-1.344175 1.37778,0 2.83397,0.212827 1.45619,0.201627 3.013194,0.616081 z m 17.227852,9.890893 v 1.14255 h -9.375626 q 0.145619,1.411384 1.019333,2.117076 0.873715,0.705693 2.44192,0.705693 1.265765,0 2.587538,-0.369649 1.332974,-0.380849 2.733157,-1.142549 v 3.091604 q -1.422586,0.537671 -2.845172,0.806506 -1.422586,0.280036 -2.845172,0.280036 -3.405245,0 -5.298293,-1.725025 -1.881846,-1.736227 -1.881846,-4.861436 0,-3.069201 1.848242,-4.827831 1.859443,-1.75863 5.107868,-1.75863 2.957187,0 4.727018,1.781033 1.781033,1.781033 1.781033,4.760622 z m -4.122139,-1.332974 q 0,-1.142549 -0.672088,-1.83704 -0.660886,-0.705692 -1.736227,-0.705692 -1.164952,0 -1.893047,0.660886 -0.728096,0.649685 -0.907319,1.881846 z m 7.157736,-4.906241 h 4.010124 v 12.54564 h -4.010124 z m 0,-4.883839 h 4.010124 v 3.270828 h -4.010124 z m 17.664707,5.27589 v 3.046798 q -1.288168,-0.53767 -2.486725,-0.806505 -1.198557,-0.268835 -2.262696,-0.268835 -1.142549,0 -1.702622,0.291238 -0.548872,0.280036 -0.548872,0.873714 0,0.481663 0.414454,0.739297 0.425656,0.257633 1.512198,0.380849 l 0.705692,0.100813 q 3.080403,0.392052 4.144542,1.288169 1.064139,0.896117 1.064139,2.811568 0,2.005062 -1.478593,3.013193 -1.478594,1.008132 -4.413377,1.008132 -1.243363,0 -2.576337,-0.201626 -1.321773,-0.190425 -2.721956,-0.582476 v -3.046799 q 1.198557,0.582477 2.453121,0.873715 1.265765,0.291238 2.565135,0.291238 1.176154,0 1.769832,-0.324843 0.593677,-0.324842 0.593677,-0.963326 0,-0.53767 -0.414454,-0.795304 -0.403253,-0.268835 -1.624212,-0.414454 l -0.705693,-0.08961 q -2.67715,-0.336044 -3.75249,-1.243362 -1.075341,-0.907319 -1.075341,-2.75556 0,-1.993861 1.366579,-2.957187 1.366578,-0.963326 4.189348,-0.963326 1.108945,0 2.329904,0.168022 1.22096,0.168022 2.654747,0.526469 z"
             id="path16" />
          <path
             style="font-family:'Reem Kufi';-inkscape-font-specification:'Reem Kufi'"
             d="m 110.53128,-27.386353 v 2.206689 q -1.28817,-0.616081 -2.43072,-0.918521 -1.14255,-0.302439 -2.20669,-0.302439 -1.84824,0 -2.85637,0.716894 -0.99693,0.716893 -0.99693,2.038666 0,1.108945 0.66089,1.68022 0.67208,0.560073 2.53153,0.907318 l 1.36658,0.280037 q 2.53153,0.481663 3.73008,1.702623 1.20976,1.209758 1.20976,3.248424 0,2.430718 -1.63541,3.685282 -1.62421,1.254564 -4.77183,1.254564 -1.18735,0 -2.53153,-0.268835 -1.33297,-0.268835 -2.766759,-0.795304 v -2.329904 q 1.377779,0.772901 2.699549,1.164952 1.32178,0.392051 2.59874,0.392051 1.93786,0 2.99079,-0.761699 1.05294,-0.7617 1.05294,-2.173085 0,-1.232161 -0.7617,-1.926652 -0.7505,-0.69449 -2.47552,-1.041736 l -1.37778,-0.268835 q -2.53153,-0.504066 -3.66288,-1.579406 -1.131348,-1.075341 -1.131348,-2.990791 0,-2.21789 1.557008,-3.494857 1.5682,-1.276967 4.31256,-1.276967 1.17615,0 2.39711,0.212827 1.22096,0.212828 2.49793,0.638484 z m 15.17799,9.386827 v 1.008132 h -9.47644 q 0.13441,2.128278 1.27696,3.248425 1.15375,1.108945 3.20362,1.108945 1.18736,0 2.2963,-0.291238 1.12015,-0.291238 2.21789,-0.873714 v 1.949054 q -1.10894,0.470462 -2.2739,0.716894 -1.16495,0.246432 -2.3635,0.246432 -3.002,0 -4.76063,-1.747428 -1.74742,-1.747429 -1.74742,-4.727018 0,-3.080403 1.65781,-4.883839 1.66902,-1.814637 4.49179,-1.814637 2.53153,0 3.99892,1.635414 1.4786,1.624212 1.4786,4.424578 z m -2.06107,-0.604879 q -0.0224,-1.691421 -0.95213,-2.699553 -0.91852,-1.008132 -2.44192,-1.008132 -1.72502,0 -2.76676,0.974528 -1.03053,0.974527 -1.18735,2.744359 z m 13.69939,0.974528 q 0,-2.240293 -0.92972,-3.472454 -0.91852,-1.232161 -2.58754,-1.232161 -1.65782,0 -2.58754,1.232161 -0.91852,1.232161 -0.91852,3.472454 0,2.229091 0.91852,3.461252 0.92972,1.232161 2.58754,1.232161 1.66902,0 2.58754,-1.232161 0.92972,-1.232161 0.92972,-3.461252 z m 2.06107,4.861435 q 0,3.2036191 -1.42259,4.7606227 -1.42259,1.568205 -4.35737,1.568205 -1.08654,0 -2.04987,-0.1680219 -0.96332,-0.1568205 -1.87064,-0.4928645 v -2.0050621 q 0.90732,0.4928644 1.79223,0.7280952 0.88492,0.2352307 1.80344,0.2352307 2.02746,0 3.0356,-1.0641391 1.00813,-1.052938 1.00813,-3.192417 v -1.019334 q -0.63849,1.108945 -1.63542,1.657817 -0.99693,0.548872 -2.38591,0.548872 -2.3075,0 -3.71888,-1.75863 -1.41139,-1.75863 -1.41139,-4.659809 0,-2.912381 1.41139,-4.671011 1.41138,-1.75863 3.71888,-1.75863 1.38898,0 2.38591,0.548872 0.99693,0.548871 1.63542,1.657816 v -1.904248 h 2.06107 z"
             id="path17" />
        </g>
      </g>
    </g>
  </g>
</svg>
